<?xml version="1.0" encoding="UTF-8" standalone="no"?>
<svg
   xmlns:dc="http://purl.org/dc/elements/1.1/"
   xmlns:cc="http://creativecommons.org/ns#"
   xmlns:rdf="http://www.w3.org/1999/02/22-rdf-syntax-ns#"
   xmlns:svg="http://www.w3.org/2000/svg"
   xmlns="http://www.w3.org/2000/svg"
   xmlns:sodipodi="http://sodipodi.sourceforge.net/DTD/sodipodi-0.dtd"
   xmlns:inkscape="http://www.inkscape.org/namespaces/inkscape"
   width="562.09631"
   height="562.09631"
   viewBox="0 0 562.09631 562.09631"
   version="1.1"
   xml:space="preserve"
   style="clip-rule:evenodd;fill-rule:evenodd;stroke-linejoin:round;stroke-miterlimit:1.41420996"
   id="svg35"
   sodipodi:docname="logo_rero_ils_plain.svg"
   inkscape:version="0.92.2 5c3e80d, 2017-08-06"
   inkscape:export-filename="/home/igor/Documents/organisation/logo-modeles/logo_rero_ils-plain.png"
   inkscape:export-xdpi="68.271988"
   inkscape:export-ydpi="68.271988"><metadata
     id="metadata41"><rdf:RDF><cc:Work
         rdf:about=""><dc:format>image/svg+xml</dc:format><dc:type
           rdf:resource="http://purl.org/dc/dcmitype/StillImage" /><dc:title></dc:title></cc:Work></rdf:RDF></metadata><defs
     id="defs39" /><sodipodi:namedview
     pagecolor="#ffffff"
     bordercolor="#666666"
     borderopacity="1"
     objecttolerance="10"
     gridtolerance="10"
     guidetolerance="10"
     inkscape:pageopacity="0"
     inkscape:pageshadow="2"
     inkscape:window-width="3200"
     inkscape:window-height="1734"
     id="namedview37"
     showgrid="false"
     inkscape:zoom="2.1527936"
     inkscape:cx="135.8357"
     inkscape:cy="260.07957"
     inkscape:window-x="0"
     inkscape:window-y="66"
     inkscape:window-maximized="1"
     inkscape:current-layer="Calque-1"
     fit-margin-top="0"
     fit-margin-left="0"
     fit-margin-right="0"
     fit-margin-bottom="0" /><g
     id="Calque-1"
     transform="matrix(4.16667,0,0,4.16667,-1158.2593,-1307.2167)"><g
       transform="translate(0,-217.48002)"
       id="g4"
       inkscape:export-xdpi="68.271988"
       inkscape:export-ydpi="68.271988"><path
         d="m 277.982,575.775 h 9.02 v 5.697 h 0.142 c 1.96,-4.121 5.938,-6.597 10.667,-6.597 1.129,0 2.175,0.216 3.226,0.521 v 8.709 c -1.494,-0.377 -2.926,-0.674 -4.351,-0.674 -8.487,0 -9.684,7.133 -9.684,9.088 v 19.299 h -9.02 z"
         style="fill:#105e9a;fill-rule:nonzero"
         id="path2"
         inkscape:connector-curvature="0" /></g><g
       transform="translate(0,-217.48002)"
       id="g12"
       inkscape:export-xdpi="68.271988"
       inkscape:export-ydpi="68.271988"><path
         d="m 356.623,592.519 c 0,-1.955 1.203,-9.088 9.688,-9.088 1.423,0 2.851,0.297 4.353,0.674 v -8.709 c -1.053,-0.305 -2.102,-0.522 -3.227,-0.522 -4.736,0 -8.712,2.477 -10.668,6.598 h -0.146 v -5.697 h -9.014 v 28.373 h 9.014 z"
         style="fill:#289fcc;fill-rule:nonzero"
         id="path10"
         inkscape:connector-curvature="0" /></g><g
       transform="translate(0,-217.48002)"
       id="g16"
       inkscape:export-xdpi="68.271988"
       inkscape:export-ydpi="68.271988"><path
         d="m 393.281,604.607 c -6.602,0 -10.586,-5.182 -10.586,-10.822 0,-5.627 3.984,-10.805 10.586,-10.805 6.613,0 10.59,5.178 10.59,10.805 0,5.64 -3.977,10.822 -10.59,10.822 m 0,-29.732 c -10.887,0 -19.596,7.578 -19.596,18.91 0,3.976 1.086,7.478 2.942,10.359 h 6.332 v 5.942 c 2.992,1.689 6.521,2.632 10.322,2.632 10.893,0 19.604,-7.586 19.604,-18.933 0,-11.332 -8.711,-18.91 -19.604,-18.91"
         style="fill:#289fcc;fill-rule:nonzero"
         id="path14"
         inkscape:connector-curvature="0" /></g><g
       transform="translate(0,-217.48002)"
       id="g24"
       inkscape:export-xdpi="68.271988"
       inkscape:export-ydpi="68.271988"><path
         d="m 322.385,581.626 c 5.629,0 9.084,3.301 9.16,8.564 h -18.473 c 0.678,-5.177 3.979,-8.564 9.313,-8.564 m 0.367,23.883 c -5.021,0 -9.078,-3.229 -9.68,-8.559 h 27.483 v -2.482 c 0,-12.535 -6.836,-19.594 -16.897,-19.594 -10.886,0 -19.603,7.578 -19.603,18.91 0,11.043 8.258,18.504 18.734,18.897 v -7.174 c -0.011,0 -0.021,0.002 -0.037,0.002"
         style="fill:#105e9a;fill-rule:nonzero"
         id="path22"
         inkscape:connector-curvature="0" /></g><g
       transform="translate(0,-217.48002)"
       id="g28"
       inkscape:export-xdpi="68.271988"
       inkscape:export-ydpi="68.271988"><path
         d="m 328.986,564.275 c -1.602,2.467 -3.771,4.484 -6.342,5.922 v -5.959 l 6.342,0.004 z"
         style="fill:#105e9a;fill-rule:nonzero"
         id="path26"
         inkscape:connector-curvature="0" /></g><g
       transform="matrix(0.99929,0,0,1,157.878,-223.98602)"
       id="g32"
       style="fill:#105e9a;fill-opacity:1"
       inkscape:export-xdpi="68.271988"
       inkscape:export-ydpi="68.271988"><text
         x="188.33"
         y="642.87598"
         style="font-weight:800;font-size:30px;font-family:Futura-Heavy, Futura;fill:#105e9a;fill-opacity:1"
         id="text30">ils</text>
</g></g></svg>